<?xml version="1.0" encoding="UTF-8"?>
<!DOCTYPE svg PUBLIC "-//W3C//DTD SVG 1.1//EN" "http://www.w3.org/Graphics/SVG/1.1/DTD/svg11.dtd">
<svg xmlns="http://www.w3.org/2000/svg" version="1.1" width="276px" height="134px" style="shape-rendering:geometricPrecision; text-rendering:geometricPrecision; image-rendering:optimizeQuality; fill-rule:evenodd; clip-rule:evenodd" xmlns:xlink="http://www.w3.org/1999/xlink">
<g><path style="opacity:0.939" fill="#fefffe" d="M 73.5,-0.5 C 73.8333,-0.5 74.1667,-0.5 74.5,-0.5C 83.6345,37.0393 92.3011,74.706 100.5,112.5C 94.1667,112.5 87.8333,112.5 81.5,112.5C 80.013,102.732 78.013,93.0654 75.5,83.5C 63.1802,82.3341 50.8468,82.1674 38.5,83C 32.1667,92.6667 25.8333,102.333 19.5,112C 12.8417,112.5 6.17499,112.666 -0.5,112.5C -0.5,111.833 -0.5,111.167 -0.5,110.5C 24.4016,73.7089 49.0683,36.7089 73.5,-0.5 Z M 65.5,39.5 C 68.2718,48.2488 70.6051,57.2488 72.5,66.5C 64.5208,67.6649 56.5208,67.8316 48.5,67C 54.4184,57.9309 60.0851,48.7643 65.5,39.5 Z"/></g>
<g><path style="opacity:0.928" fill="#fefffe" d="M 100.5,133.5 C 98.5,133.5 96.5,133.5 94.5,133.5C 94.5,128.167 94.5,122.833 94.5,117.5C 105.274,116.868 114.107,112.535 121,104.5C 124.326,98.1878 126.66,91.5212 128,84.5C 133.461,60.195 138.794,35.8617 144,11.5C 150.333,8.16667 156.667,4.83333 163,1.5C 163.667,3.5 163.667,5.5 163,7.5C 157.333,34.5 151.667,61.5 146,88.5C 143.945,99.3425 139.945,109.342 134,118.5C 124.005,126.323 112.838,131.323 100.5,133.5 Z"/></g>
<g><path style="opacity:0.939" fill="#fefffe" d="M 275.5,58.5 C 275.5,59.8333 275.5,61.1667 275.5,62.5C 264.891,69.6281 254.891,77.4614 245.5,86C 250.617,99.5097 254.951,113.01 258.5,126.5C 247.129,117.959 235.629,109.625 224,101.5C 212.371,109.625 200.871,117.959 189.5,126.5C 193.205,113.234 197.205,99.7342 201.5,86C 201.241,84.7387 200.574,83.7387 199.5,83C 188.388,75.7142 177.722,67.8809 167.5,59.5C 181.488,58.6672 195.488,58.1672 209.5,58C 213.894,44.5982 218.06,31.0982 222,17.5C 227.025,30.9074 231.859,44.4074 236.5,58C 249.496,58.4999 262.496,58.6666 275.5,58.5 Z"/></g>
</svg>
